<svg xmlns="http://www.w3.org/2000/svg" viewBox="0 0 190.7 177.44"><defs><style>.cls-1{fill:#aaa99d;}.cls-2{fill:#ffeb3b;}.cls-3{fill:#020202;}</style></defs><title>logoplaceholder</title><g id="Layer_1" data-name="Layer 1"><g id="Circle"><path d="M280.24,644.16c12.29-6,25-10.44,38.59-12.33,8.37-1.16,16.69-1.15,24.88,1,16,4.21,25.71,15.12,31.62,29.94C381.79,679,382.78,696,382,713.69c-.95-14.72-3.53-28.49-10.13-41.25-9.93-19.22-26.18-29.16-47.21-32-14.45-2-28.6-.16-42.62,3.35C281.42,643.92,280.83,644,280.24,644.16Z" transform="translate(-212.16 -628.82)"/><path d="M274.28,789c7.83,2.29,17.33,6,27.18,7.77,26.4,4.6,46.8-5.54,61.87-27.25,7.42-10.68,12.35-22.5,16.11-34.86a8,8,0,0,1,1-2.36c-2.63,21.4-6.35,42.52-21.28,59.43-10.78,12.22-25,16-40.74,14.06C301.62,803.76,286.66,796.75,274.28,789Z" transform="translate(-212.16 -628.82)"/><path d="M259.3,653.53c-6.2,5.94-13.43,12.11-19.76,19.08a57.62,57.62,0,0,0-15.49,37.68A64.61,64.61,0,0,0,234,746.66c5.29,8.56,11.77,16.37,17.74,24.51a7.53,7.53,0,0,1,1.73,3.06c-3.73-3.06-7.55-6-11.17-9.19-10.38-9.14-19.71-19.14-25.51-32C209,716,211.27,700,221.85,684.93,231.71,670.9,245.37,661.34,259.3,653.53Z" transform="translate(-212.16 -628.82)"/></g><g id="Circle-2" data-name="Circle"><path class="cls-1" d="M237.25,731a112,112,0,0,1-6.84-34.83,55,55,0,0,1,3.39-21.57c5.28-13.46,15.76-20.85,29.26-24.5,14.76-4,29.64-3.14,45-.64-12.91-.65-25.16.2-36.94,4.66-17.73,6.71-28,19.84-32.63,37.87-3.16,12.38-3,24.88-1.39,37.44C237.16,730,237.19,730.49,237.25,731Z" transform="translate(-212.16 -628.82)"/><path class="cls-1" d="M362.75,750.83c2.78-6.58,7-14.47,9.5-22.88,6.68-22.52-.09-41.3-17.47-56.62-8.55-7.54-18.34-13-28.73-17.54a7,7,0,0,1-1.95-1.14c18.38,4.45,36.38,9.83,49.59,24.53,9.56,10.62,11.39,23.34,8.13,36.89C378.36,728.52,370.75,740.84,362.75,750.83Z" transform="translate(-212.16 -628.82)"/><path class="cls-1" d="M243.29,750.19c4.54,6,9.19,12.91,14.62,19.14a50.56,50.56,0,0,0,31.24,17.29,56.68,56.68,0,0,0,32.66-5c8-3.73,15.45-8.59,23.13-13a6.67,6.67,0,0,1,2.84-1.2c-3,2.94-6,6-9.13,8.8-9,8.11-18.65,15.22-30.39,19-15.63,5-29.39,1.43-41.42-9.3C255.63,776,248.68,763.11,243.29,750.19Z" transform="translate(-212.16 -628.82)"/></g><g id="Circle-3" data-name="Circle"><path class="cls-2" d="M248,670.12c7.08-10.75,15.27-20.48,25.36-28.51A59.1,59.1,0,0,1,294,630.48c14.95-4.24,28.1-.08,40,9.1,13,10,22,23.31,29.81,38.08-7.84-11.48-16.54-21.4-28-28.58-17.28-10.81-35.21-11.07-53.63-3.28-12.65,5.34-23.26,13.6-32.94,23.16C248.84,669.36,248.42,669.73,248,670.12Z" transform="translate(-212.16 -628.82)"/><path class="cls-2" d="M312.68,790.38c7.44-1.9,16.95-3.41,25.76-6.75,23.61-8.94,35.27-27,37.08-51.78.88-12.22-.8-24.16-3.68-36a7.72,7.72,0,0,1-.3-2.4c8.14,18.61,15.26,37.51,11.28,58.38-2.88,15.08-12.57,24.92-26.28,30.95C341.92,789.22,326.43,790.72,312.68,790.38Z" transform="translate(-212.16 -628.82)"/><path class="cls-2" d="M235.53,687.76c-2.18,7.79-5.08,16.26-6.87,25a54.4,54.4,0,0,0,5.53,38,61,61,0,0,0,25.49,24.72c8.4,4.4,17.4,7.62,26.14,11.35a7.09,7.09,0,0,1,2.87,1.65c-4.49-.69-9-1.24-13.46-2.09-12.8-2.43-25.16-6.05-36-13.65-14.44-10.12-20.33-24.21-19-41.48C221.5,715.09,228,700.78,235.53,687.76Z" transform="translate(-212.16 -628.82)"/></g></g><g id="Layer_2" data-name="Layer 2"><path class="cls-2" d="M277.91,741.94l14.24-24.85-66.33-15.27-9.95-.08-.13,2.67,69.64,16-14.24,24.85L396,735.82c0-.94,0-1.76.05-2.64l-1-.12Z" transform="translate(-212.16 -628.82)"/><g id="DCqe1i.tif"><path class="cls-3" d="M328.24,693,308.7,712.72l94.16,10.82-.05,2.64-124.9,9.47,14.24-24.85-69.64-16,.13-2.67Z" transform="translate(-212.16 -628.82)"/></g></g></svg>